<mxfile host="app.diagrams.net" modified="2023-08-22T02:40:45.896Z" agent="Mozilla/5.0 (Windows NT 10.0; Win64; x64) AppleWebKit/537.36 (KHTML, like Gecko) Chrome/116.0.0.0 Safari/537.36" etag="Lem0GTxvgfJunQGlVWSh" version="21.6.8" type="github">
  <diagram name="Halaman-1" id="-t5tVd7st6yKCSb5TvGo">
    <mxGraphModel dx="1120" dy="478" grid="1" gridSize="10" guides="1" tooltips="1" connect="1" arrows="1" fold="1" page="1" pageScale="1" pageWidth="827" pageHeight="1169" math="0" shadow="0">
      <root>
        <mxCell id="0" />
        <mxCell id="1" parent="0" />
        <mxCell id="qx-wn47znotJvqTRnyTK-4" value="" style="rounded=0;whiteSpace=wrap;html=1;rotation=90;" vertex="1" parent="1">
          <mxGeometry x="204.88" y="175.13" width="400" height="261.25" as="geometry" />
        </mxCell>
        <mxCell id="qx-wn47znotJvqTRnyTK-7" value="Player 1&lt;br&gt;(Komputer)" style="shape=umlActor;verticalLabelPosition=bottom;verticalAlign=top;html=1;outlineConnect=0;" vertex="1" parent="1">
          <mxGeometry x="100" y="240" width="60" height="120" as="geometry" />
        </mxCell>
        <mxCell id="qx-wn47znotJvqTRnyTK-8" value="Player 2&lt;br&gt;(User)" style="shape=umlActor;verticalLabelPosition=bottom;verticalAlign=top;html=1;outlineConnect=0;" vertex="1" parent="1">
          <mxGeometry x="640" y="240" width="60" height="120" as="geometry" />
        </mxCell>
        <mxCell id="qx-wn47znotJvqTRnyTK-31" value="" style="endArrow=none;html=1;rounded=0;" edge="1" parent="1" source="qx-wn47znotJvqTRnyTK-37" target="qx-wn47znotJvqTRnyTK-8">
          <mxGeometry width="50" height="50" relative="1" as="geometry">
            <mxPoint x="540" y="306" as="sourcePoint" />
            <mxPoint x="630" y="290" as="targetPoint" />
            <Array as="points">
              <mxPoint x="540" y="360" />
            </Array>
          </mxGeometry>
        </mxCell>
        <mxCell id="qx-wn47znotJvqTRnyTK-33" value="Game Tebak Angka" style="text;html=1;strokeColor=none;fillColor=none;align=center;verticalAlign=middle;whiteSpace=wrap;rounded=0;" vertex="1" parent="1">
          <mxGeometry x="280" y="100" width="110" height="50" as="geometry" />
        </mxCell>
        <mxCell id="qx-wn47znotJvqTRnyTK-34" value="Random Angka" style="ellipse;whiteSpace=wrap;html=1;" vertex="1" parent="1">
          <mxGeometry x="329.88" y="200" width="150" height="70" as="geometry" />
        </mxCell>
        <mxCell id="qx-wn47znotJvqTRnyTK-36" value="" style="endArrow=none;html=1;rounded=0;" edge="1" parent="1" source="qx-wn47znotJvqTRnyTK-7" target="qx-wn47znotJvqTRnyTK-34">
          <mxGeometry width="50" height="50" relative="1" as="geometry">
            <mxPoint x="180" y="290" as="sourcePoint" />
            <mxPoint x="274" y="300.75" as="targetPoint" />
            <Array as="points">
              <mxPoint x="270" y="240" />
            </Array>
          </mxGeometry>
        </mxCell>
        <mxCell id="qx-wn47znotJvqTRnyTK-37" value="Tebak Angka" style="ellipse;whiteSpace=wrap;html=1;" vertex="1" parent="1">
          <mxGeometry x="329.88" y="330" width="150" height="70" as="geometry" />
        </mxCell>
      </root>
    </mxGraphModel>
  </diagram>
</mxfile>
